<mxfile host="app.diagrams.net" modified="2023-04-30T12:17:15.659Z" agent="Mozilla/5.0 (Windows NT 10.0; Win64; x64) AppleWebKit/537.36 (KHTML, like Gecko) Chrome/112.0.0.0 Safari/537.36 Edg/112.0.1722.58" etag="Z-gnthmQgNzCcSDKIgH9" version="21.2.3" type="google">
  <diagram name="Page-1" id="XyNqBoIrPlwOpHmq4wKd">
    <mxGraphModel grid="0" page="0" gridSize="10" guides="1" tooltips="1" connect="1" arrows="1" fold="1" pageScale="1" pageWidth="827" pageHeight="1169" math="1" shadow="0">
      <root>
        <mxCell id="0" />
        <mxCell id="1" parent="0" />
        <mxCell id="NxWGqdp5jgiK-QCYanBL-93" value="" style="rounded=1;whiteSpace=wrap;html=1;fontSize=16;arcSize=39;" vertex="1" parent="1">
          <mxGeometry x="-243" y="211" width="512" height="43" as="geometry" />
        </mxCell>
        <mxCell id="NxWGqdp5jgiK-QCYanBL-94" value="" style="rounded=1;whiteSpace=wrap;html=1;fontSize=16;arcSize=0;fillColor=default;strokeColor=none;" vertex="1" parent="1">
          <mxGeometry x="-228" y="208" width="480" height="56" as="geometry" />
        </mxCell>
        <mxCell id="NxWGqdp5jgiK-QCYanBL-84" value="" style="rounded=1;whiteSpace=wrap;html=1;fontSize=16;arcSize=13;" vertex="1" parent="1">
          <mxGeometry x="-247" y="56" width="515" height="141" as="geometry" />
        </mxCell>
        <mxCell id="NxWGqdp5jgiK-QCYanBL-90" value="" style="rounded=1;whiteSpace=wrap;html=1;fontSize=16;arcSize=0;strokeColor=none;" vertex="1" parent="1">
          <mxGeometry x="-228" y="40" width="479" height="161" as="geometry" />
        </mxCell>
        <mxCell id="NxWGqdp5jgiK-QCYanBL-82" value="" style="rounded=1;whiteSpace=wrap;html=1;fontSize=16;arcSize=39;" vertex="1" parent="1">
          <mxGeometry x="-243" y="3" width="509" height="43" as="geometry" />
        </mxCell>
        <mxCell id="NxWGqdp5jgiK-QCYanBL-86" value="" style="rounded=1;whiteSpace=wrap;html=1;fontSize=16;arcSize=0;fillColor=default;strokeColor=none;" vertex="1" parent="1">
          <mxGeometry x="-228" width="478" height="56" as="geometry" />
        </mxCell>
        <mxCell id="NxWGqdp5jgiK-QCYanBL-73" value="&lt;font face=&quot;Times New Roman&quot; style=&quot;font-size: 17px;&quot;&gt;Pattern 2&lt;/font&gt;" style="text;html=1;align=center;verticalAlign=middle;resizable=0;points=[];autosize=1;strokeColor=none;fillColor=none;fontSize=17;" vertex="1" parent="1">
          <mxGeometry x="-715" y="166" width="80" height="30" as="geometry" />
        </mxCell>
        <mxCell id="NxWGqdp5jgiK-QCYanBL-32" style="edgeStyle=none;curved=1;rounded=0;orthogonalLoop=1;jettySize=auto;html=1;exitX=0.5;exitY=1;exitDx=0;exitDy=0;entryX=0.5;entryY=0;entryDx=0;entryDy=0;fontSize=12;startSize=8;endSize=8;endArrow=none;endFill=0;" edge="1" parent="1" source="NxWGqdp5jgiK-QCYanBL-1" target="NxWGqdp5jgiK-QCYanBL-26">
          <mxGeometry relative="1" as="geometry" />
        </mxCell>
        <mxCell id="NxWGqdp5jgiK-QCYanBL-47" style="edgeStyle=none;curved=1;rounded=0;orthogonalLoop=1;jettySize=auto;html=1;exitX=0.5;exitY=1;exitDx=0;exitDy=0;entryX=0.5;entryY=0;entryDx=0;entryDy=0;fontSize=12;startSize=8;endSize=8;endArrow=none;endFill=0;" edge="1" parent="1" source="NxWGqdp5jgiK-QCYanBL-1" target="NxWGqdp5jgiK-QCYanBL-27">
          <mxGeometry relative="1" as="geometry" />
        </mxCell>
        <mxCell id="NxWGqdp5jgiK-QCYanBL-1" value="x&lt;sub&gt;1&lt;/sub&gt;" style="text;html=1;strokeColor=none;fillColor=none;align=center;verticalAlign=middle;whiteSpace=wrap;rounded=0;fontSize=16;fontFamily=Times New Roman;fontStyle=2" vertex="1" parent="1">
          <mxGeometry x="-250" y="10" width="60" height="30" as="geometry" />
        </mxCell>
        <mxCell id="NxWGqdp5jgiK-QCYanBL-33" style="edgeStyle=none;curved=1;rounded=0;orthogonalLoop=1;jettySize=auto;html=1;exitX=0.5;exitY=1;exitDx=0;exitDy=0;entryX=0.5;entryY=0;entryDx=0;entryDy=0;fontSize=12;startSize=8;endSize=8;endArrow=none;endFill=0;" edge="1" parent="1" source="NxWGqdp5jgiK-QCYanBL-3" target="NxWGqdp5jgiK-QCYanBL-26">
          <mxGeometry relative="1" as="geometry" />
        </mxCell>
        <mxCell id="NxWGqdp5jgiK-QCYanBL-48" style="edgeStyle=none;curved=1;rounded=0;orthogonalLoop=1;jettySize=auto;html=1;exitX=0.5;exitY=1;exitDx=0;exitDy=0;entryX=0.5;entryY=0;entryDx=0;entryDy=0;fontSize=12;startSize=8;endSize=8;endArrow=none;endFill=0;" edge="1" parent="1" source="NxWGqdp5jgiK-QCYanBL-3" target="NxWGqdp5jgiK-QCYanBL-27">
          <mxGeometry relative="1" as="geometry" />
        </mxCell>
        <mxCell id="NxWGqdp5jgiK-QCYanBL-3" value="x&lt;sub&gt;2&lt;/sub&gt;" style="text;html=1;strokeColor=none;fillColor=none;align=center;verticalAlign=middle;whiteSpace=wrap;rounded=0;fontSize=16;fontFamily=Times New Roman;fontStyle=2" vertex="1" parent="1">
          <mxGeometry x="-220" y="9.5" width="60" height="30" as="geometry" />
        </mxCell>
        <mxCell id="NxWGqdp5jgiK-QCYanBL-31" style="edgeStyle=none;curved=1;rounded=0;orthogonalLoop=1;jettySize=auto;html=1;entryX=0.5;entryY=0;entryDx=0;entryDy=0;fontSize=12;startSize=8;endSize=8;endArrow=none;endFill=0;exitX=0.5;exitY=1;exitDx=0;exitDy=0;" edge="1" parent="1" source="NxWGqdp5jgiK-QCYanBL-4" target="NxWGqdp5jgiK-QCYanBL-26">
          <mxGeometry relative="1" as="geometry" />
        </mxCell>
        <mxCell id="NxWGqdp5jgiK-QCYanBL-49" style="edgeStyle=none;curved=1;rounded=0;orthogonalLoop=1;jettySize=auto;html=1;exitX=0.5;exitY=1;exitDx=0;exitDy=0;entryX=0.5;entryY=0;entryDx=0;entryDy=0;fontSize=12;startSize=8;endSize=8;endArrow=none;endFill=0;" edge="1" parent="1" source="NxWGqdp5jgiK-QCYanBL-4" target="NxWGqdp5jgiK-QCYanBL-27">
          <mxGeometry relative="1" as="geometry" />
        </mxCell>
        <mxCell id="NxWGqdp5jgiK-QCYanBL-4" value="x&lt;sub&gt;3&lt;/sub&gt;" style="text;html=1;strokeColor=none;fillColor=none;align=center;verticalAlign=middle;whiteSpace=wrap;rounded=0;fontSize=16;fontFamily=Times New Roman;fontStyle=2" vertex="1" parent="1">
          <mxGeometry x="-190" y="10" width="60" height="30" as="geometry" />
        </mxCell>
        <mxCell id="NxWGqdp5jgiK-QCYanBL-34" style="edgeStyle=none;curved=1;rounded=0;orthogonalLoop=1;jettySize=auto;html=1;exitX=0.5;exitY=1;exitDx=0;exitDy=0;fontSize=12;startSize=8;endSize=8;entryX=0.5;entryY=0;entryDx=0;entryDy=0;endArrow=none;endFill=0;" edge="1" parent="1" source="NxWGqdp5jgiK-QCYanBL-5" target="NxWGqdp5jgiK-QCYanBL-26">
          <mxGeometry relative="1" as="geometry">
            <mxPoint x="-40" y="160" as="targetPoint" />
          </mxGeometry>
        </mxCell>
        <mxCell id="NxWGqdp5jgiK-QCYanBL-50" style="edgeStyle=none;curved=1;rounded=0;orthogonalLoop=1;jettySize=auto;html=1;exitX=0.5;exitY=1;exitDx=0;exitDy=0;entryX=0.5;entryY=0;entryDx=0;entryDy=0;fontSize=12;startSize=8;endSize=8;endArrow=none;endFill=0;" edge="1" parent="1" source="NxWGqdp5jgiK-QCYanBL-5" target="NxWGqdp5jgiK-QCYanBL-27">
          <mxGeometry relative="1" as="geometry" />
        </mxCell>
        <mxCell id="NxWGqdp5jgiK-QCYanBL-5" value="x&lt;sub&gt;4&lt;/sub&gt;" style="text;html=1;strokeColor=none;fillColor=none;align=center;verticalAlign=middle;whiteSpace=wrap;rounded=0;fontSize=16;fontFamily=Times New Roman;fontStyle=2" vertex="1" parent="1">
          <mxGeometry x="-160" y="10" width="60" height="30" as="geometry" />
        </mxCell>
        <mxCell id="NxWGqdp5jgiK-QCYanBL-35" style="edgeStyle=none;curved=1;rounded=0;orthogonalLoop=1;jettySize=auto;html=1;exitX=0.5;exitY=1;exitDx=0;exitDy=0;fontSize=12;startSize=8;endSize=8;entryX=0.5;entryY=0;entryDx=0;entryDy=0;endArrow=none;endFill=0;" edge="1" parent="1" source="NxWGqdp5jgiK-QCYanBL-6" target="NxWGqdp5jgiK-QCYanBL-26">
          <mxGeometry relative="1" as="geometry">
            <mxPoint x="-90" y="190" as="targetPoint" />
          </mxGeometry>
        </mxCell>
        <mxCell id="NxWGqdp5jgiK-QCYanBL-51" style="edgeStyle=none;curved=1;rounded=0;orthogonalLoop=1;jettySize=auto;html=1;exitX=0.5;exitY=1;exitDx=0;exitDy=0;entryX=0.5;entryY=0;entryDx=0;entryDy=0;fontSize=12;startSize=8;endSize=8;endArrow=none;endFill=0;" edge="1" parent="1" source="NxWGqdp5jgiK-QCYanBL-6" target="NxWGqdp5jgiK-QCYanBL-27">
          <mxGeometry relative="1" as="geometry" />
        </mxCell>
        <mxCell id="NxWGqdp5jgiK-QCYanBL-6" value="x&lt;sub&gt;5&lt;/sub&gt;" style="text;html=1;strokeColor=none;fillColor=none;align=center;verticalAlign=middle;whiteSpace=wrap;rounded=0;fontSize=16;fontFamily=Times New Roman;fontStyle=2" vertex="1" parent="1">
          <mxGeometry x="-130" y="10" width="60" height="30" as="geometry" />
        </mxCell>
        <mxCell id="NxWGqdp5jgiK-QCYanBL-36" style="edgeStyle=none;curved=1;rounded=0;orthogonalLoop=1;jettySize=auto;html=1;exitX=0.5;exitY=1;exitDx=0;exitDy=0;entryX=0.5;entryY=0;entryDx=0;entryDy=0;fontSize=12;startSize=8;endSize=8;endArrow=none;endFill=0;" edge="1" parent="1" source="NxWGqdp5jgiK-QCYanBL-7" target="NxWGqdp5jgiK-QCYanBL-26">
          <mxGeometry relative="1" as="geometry" />
        </mxCell>
        <mxCell id="NxWGqdp5jgiK-QCYanBL-52" style="edgeStyle=none;curved=1;rounded=0;orthogonalLoop=1;jettySize=auto;html=1;exitX=0.5;exitY=1;exitDx=0;exitDy=0;entryX=0.5;entryY=0;entryDx=0;entryDy=0;fontSize=12;startSize=8;endSize=8;endArrow=none;endFill=0;" edge="1" parent="1" source="NxWGqdp5jgiK-QCYanBL-7" target="NxWGqdp5jgiK-QCYanBL-27">
          <mxGeometry relative="1" as="geometry" />
        </mxCell>
        <mxCell id="NxWGqdp5jgiK-QCYanBL-7" value="x&lt;sub&gt;6&lt;/sub&gt;" style="text;html=1;strokeColor=none;fillColor=none;align=center;verticalAlign=middle;whiteSpace=wrap;rounded=0;fontSize=16;fontFamily=Times New Roman;fontStyle=2" vertex="1" parent="1">
          <mxGeometry x="-100" y="10" width="60" height="30" as="geometry" />
        </mxCell>
        <mxCell id="NxWGqdp5jgiK-QCYanBL-37" style="edgeStyle=none;curved=1;rounded=0;orthogonalLoop=1;jettySize=auto;html=1;exitX=0.5;exitY=1;exitDx=0;exitDy=0;entryX=0.5;entryY=0;entryDx=0;entryDy=0;fontSize=12;startSize=8;endSize=8;endArrow=none;endFill=0;" edge="1" parent="1" source="NxWGqdp5jgiK-QCYanBL-8" target="NxWGqdp5jgiK-QCYanBL-26">
          <mxGeometry relative="1" as="geometry" />
        </mxCell>
        <mxCell id="NxWGqdp5jgiK-QCYanBL-53" style="edgeStyle=none;curved=1;rounded=0;orthogonalLoop=1;jettySize=auto;html=1;exitX=0.5;exitY=1;exitDx=0;exitDy=0;entryX=0.5;entryY=0;entryDx=0;entryDy=0;fontSize=12;startSize=8;endSize=8;endArrow=none;endFill=0;" edge="1" parent="1" source="NxWGqdp5jgiK-QCYanBL-8" target="NxWGqdp5jgiK-QCYanBL-27">
          <mxGeometry relative="1" as="geometry" />
        </mxCell>
        <mxCell id="NxWGqdp5jgiK-QCYanBL-8" value="x&lt;sub&gt;7&lt;/sub&gt;" style="text;html=1;strokeColor=none;fillColor=none;align=center;verticalAlign=middle;whiteSpace=wrap;rounded=0;fontSize=16;fontFamily=Times New Roman;fontStyle=2" vertex="1" parent="1">
          <mxGeometry x="-70" y="10" width="60" height="30" as="geometry" />
        </mxCell>
        <mxCell id="NxWGqdp5jgiK-QCYanBL-38" style="edgeStyle=none;curved=1;rounded=0;orthogonalLoop=1;jettySize=auto;html=1;exitX=0.5;exitY=1;exitDx=0;exitDy=0;entryX=0.5;entryY=0;entryDx=0;entryDy=0;fontSize=12;startSize=8;endSize=8;endArrow=none;endFill=0;" edge="1" parent="1" source="NxWGqdp5jgiK-QCYanBL-9" target="NxWGqdp5jgiK-QCYanBL-26">
          <mxGeometry relative="1" as="geometry" />
        </mxCell>
        <mxCell id="NxWGqdp5jgiK-QCYanBL-54" style="edgeStyle=none;curved=1;rounded=0;orthogonalLoop=1;jettySize=auto;html=1;exitX=0.5;exitY=1;exitDx=0;exitDy=0;fontSize=12;startSize=8;endSize=8;entryX=0.5;entryY=0;entryDx=0;entryDy=0;endArrow=none;endFill=0;" edge="1" parent="1" source="NxWGqdp5jgiK-QCYanBL-9" target="NxWGqdp5jgiK-QCYanBL-27">
          <mxGeometry relative="1" as="geometry">
            <mxPoint x="100" y="140" as="targetPoint" />
          </mxGeometry>
        </mxCell>
        <mxCell id="NxWGqdp5jgiK-QCYanBL-9" value="x&lt;sub&gt;8&lt;/sub&gt;" style="text;html=1;strokeColor=none;fillColor=none;align=center;verticalAlign=middle;whiteSpace=wrap;rounded=0;fontSize=16;fontFamily=Times New Roman;fontStyle=2" vertex="1" parent="1">
          <mxGeometry x="-40" y="11" width="60" height="30" as="geometry" />
        </mxCell>
        <mxCell id="NxWGqdp5jgiK-QCYanBL-39" style="edgeStyle=none;curved=1;rounded=0;orthogonalLoop=1;jettySize=auto;html=1;exitX=0.5;exitY=1;exitDx=0;exitDy=0;fontSize=12;startSize=8;endSize=8;entryX=0.5;entryY=0;entryDx=0;entryDy=0;endArrow=none;endFill=0;" edge="1" parent="1" source="NxWGqdp5jgiK-QCYanBL-10" target="NxWGqdp5jgiK-QCYanBL-26">
          <mxGeometry relative="1" as="geometry">
            <mxPoint x="-140" y="200" as="targetPoint" />
          </mxGeometry>
        </mxCell>
        <mxCell id="NxWGqdp5jgiK-QCYanBL-55" style="edgeStyle=none;curved=1;rounded=0;orthogonalLoop=1;jettySize=auto;html=1;exitX=0.5;exitY=1;exitDx=0;exitDy=0;entryX=0.5;entryY=0;entryDx=0;entryDy=0;fontSize=12;startSize=8;endSize=8;endArrow=none;endFill=0;" edge="1" parent="1" source="NxWGqdp5jgiK-QCYanBL-10" target="NxWGqdp5jgiK-QCYanBL-27">
          <mxGeometry relative="1" as="geometry" />
        </mxCell>
        <mxCell id="NxWGqdp5jgiK-QCYanBL-10" value="x&lt;sub&gt;9&lt;/sub&gt;" style="text;html=1;strokeColor=none;fillColor=none;align=center;verticalAlign=middle;whiteSpace=wrap;rounded=0;fontSize=16;fontFamily=Times New Roman;fontStyle=2" vertex="1" parent="1">
          <mxGeometry x="-10" y="9.5" width="60" height="30" as="geometry" />
        </mxCell>
        <mxCell id="NxWGqdp5jgiK-QCYanBL-40" style="edgeStyle=none;curved=1;rounded=0;orthogonalLoop=1;jettySize=auto;html=1;exitX=0.5;exitY=1;exitDx=0;exitDy=0;fontSize=12;startSize=8;endSize=8;entryX=0.5;entryY=0;entryDx=0;entryDy=0;endArrow=none;endFill=0;" edge="1" parent="1" source="NxWGqdp5jgiK-QCYanBL-11" target="NxWGqdp5jgiK-QCYanBL-26">
          <mxGeometry relative="1" as="geometry">
            <mxPoint x="-190" y="210" as="targetPoint" />
          </mxGeometry>
        </mxCell>
        <mxCell id="NxWGqdp5jgiK-QCYanBL-56" style="edgeStyle=none;curved=1;rounded=0;orthogonalLoop=1;jettySize=auto;html=1;exitX=0.5;exitY=1;exitDx=0;exitDy=0;entryX=0.5;entryY=0;entryDx=0;entryDy=0;fontSize=12;startSize=8;endSize=8;endArrow=none;endFill=0;" edge="1" parent="1" source="NxWGqdp5jgiK-QCYanBL-11" target="NxWGqdp5jgiK-QCYanBL-27">
          <mxGeometry relative="1" as="geometry" />
        </mxCell>
        <mxCell id="NxWGqdp5jgiK-QCYanBL-11" value="x&lt;sub&gt;10&lt;/sub&gt;" style="text;html=1;strokeColor=none;fillColor=none;align=center;verticalAlign=middle;whiteSpace=wrap;rounded=0;fontSize=16;fontFamily=Times New Roman;fontStyle=2" vertex="1" parent="1">
          <mxGeometry x="50" y="9.5" width="60" height="30" as="geometry" />
        </mxCell>
        <mxCell id="NxWGqdp5jgiK-QCYanBL-41" style="edgeStyle=none;curved=1;rounded=0;orthogonalLoop=1;jettySize=auto;html=1;exitX=0.5;exitY=1;exitDx=0;exitDy=0;entryX=0.5;entryY=0;entryDx=0;entryDy=0;fontSize=12;startSize=8;endSize=8;endArrow=none;endFill=0;" edge="1" parent="1" source="NxWGqdp5jgiK-QCYanBL-12" target="NxWGqdp5jgiK-QCYanBL-26">
          <mxGeometry relative="1" as="geometry" />
        </mxCell>
        <mxCell id="NxWGqdp5jgiK-QCYanBL-57" style="edgeStyle=none;curved=1;rounded=0;orthogonalLoop=1;jettySize=auto;html=1;exitX=0.5;exitY=1;exitDx=0;exitDy=0;entryX=0.5;entryY=0;entryDx=0;entryDy=0;fontSize=12;startSize=8;endSize=8;endArrow=none;endFill=0;" edge="1" parent="1" source="NxWGqdp5jgiK-QCYanBL-12" target="NxWGqdp5jgiK-QCYanBL-27">
          <mxGeometry relative="1" as="geometry" />
        </mxCell>
        <mxCell id="NxWGqdp5jgiK-QCYanBL-12" value="x&lt;sub&gt;11&lt;/sub&gt;" style="text;html=1;strokeColor=none;fillColor=none;align=center;verticalAlign=middle;whiteSpace=wrap;rounded=0;fontSize=16;fontFamily=Times New Roman;fontStyle=2" vertex="1" parent="1">
          <mxGeometry x="20" y="9.5" width="60" height="30" as="geometry" />
        </mxCell>
        <mxCell id="NxWGqdp5jgiK-QCYanBL-42" style="edgeStyle=none;curved=1;rounded=0;orthogonalLoop=1;jettySize=auto;html=1;exitX=0.5;exitY=1;exitDx=0;exitDy=0;entryX=0.5;entryY=0;entryDx=0;entryDy=0;fontSize=12;startSize=8;endSize=8;endArrow=none;endFill=0;" edge="1" parent="1" source="NxWGqdp5jgiK-QCYanBL-13" target="NxWGqdp5jgiK-QCYanBL-26">
          <mxGeometry relative="1" as="geometry" />
        </mxCell>
        <mxCell id="NxWGqdp5jgiK-QCYanBL-58" style="edgeStyle=none;curved=1;rounded=0;orthogonalLoop=1;jettySize=auto;html=1;exitX=0.5;exitY=1;exitDx=0;exitDy=0;entryX=0.5;entryY=0;entryDx=0;entryDy=0;fontSize=12;startSize=8;endSize=8;endArrow=none;endFill=0;" edge="1" parent="1" source="NxWGqdp5jgiK-QCYanBL-13" target="NxWGqdp5jgiK-QCYanBL-27">
          <mxGeometry relative="1" as="geometry" />
        </mxCell>
        <mxCell id="NxWGqdp5jgiK-QCYanBL-13" value="x&lt;sub&gt;12&lt;/sub&gt;" style="text;html=1;strokeColor=none;fillColor=none;align=center;verticalAlign=middle;whiteSpace=wrap;rounded=0;fontSize=16;fontFamily=Times New Roman;fontStyle=2" vertex="1" parent="1">
          <mxGeometry x="80" y="9.5" width="60" height="30" as="geometry" />
        </mxCell>
        <mxCell id="NxWGqdp5jgiK-QCYanBL-43" style="edgeStyle=none;curved=1;rounded=0;orthogonalLoop=1;jettySize=auto;html=1;exitX=0.5;exitY=1;exitDx=0;exitDy=0;entryX=0.5;entryY=0;entryDx=0;entryDy=0;fontSize=12;startSize=8;endSize=8;endArrow=none;endFill=0;" edge="1" parent="1" source="NxWGqdp5jgiK-QCYanBL-14" target="NxWGqdp5jgiK-QCYanBL-26">
          <mxGeometry relative="1" as="geometry" />
        </mxCell>
        <mxCell id="NxWGqdp5jgiK-QCYanBL-59" style="edgeStyle=none;curved=1;rounded=0;orthogonalLoop=1;jettySize=auto;html=1;exitX=0.5;exitY=1;exitDx=0;exitDy=0;entryX=0.5;entryY=0;entryDx=0;entryDy=0;fontSize=12;startSize=8;endSize=8;endArrow=none;endFill=0;" edge="1" parent="1" source="NxWGqdp5jgiK-QCYanBL-14" target="NxWGqdp5jgiK-QCYanBL-27">
          <mxGeometry relative="1" as="geometry" />
        </mxCell>
        <mxCell id="NxWGqdp5jgiK-QCYanBL-14" value="x&lt;sub&gt;13&lt;/sub&gt;" style="text;html=1;strokeColor=none;fillColor=none;align=center;verticalAlign=middle;whiteSpace=wrap;rounded=0;fontSize=16;fontFamily=Times New Roman;fontStyle=2" vertex="1" parent="1">
          <mxGeometry x="110" y="11" width="60" height="30" as="geometry" />
        </mxCell>
        <mxCell id="NxWGqdp5jgiK-QCYanBL-44" style="edgeStyle=none;curved=1;rounded=0;orthogonalLoop=1;jettySize=auto;html=1;exitX=0.5;exitY=1;exitDx=0;exitDy=0;entryX=0.5;entryY=0;entryDx=0;entryDy=0;fontSize=12;startSize=8;endSize=8;endArrow=none;endFill=0;" edge="1" parent="1" source="NxWGqdp5jgiK-QCYanBL-22" target="NxWGqdp5jgiK-QCYanBL-26">
          <mxGeometry relative="1" as="geometry" />
        </mxCell>
        <mxCell id="NxWGqdp5jgiK-QCYanBL-60" style="edgeStyle=none;curved=1;rounded=0;orthogonalLoop=1;jettySize=auto;html=1;exitX=0.5;exitY=1;exitDx=0;exitDy=0;entryX=0.5;entryY=0;entryDx=0;entryDy=0;fontSize=12;startSize=8;endSize=8;endArrow=none;endFill=0;" edge="1" parent="1" source="NxWGqdp5jgiK-QCYanBL-22" target="NxWGqdp5jgiK-QCYanBL-27">
          <mxGeometry relative="1" as="geometry" />
        </mxCell>
        <mxCell id="NxWGqdp5jgiK-QCYanBL-22" value="x&lt;sub&gt;14&lt;/sub&gt;" style="text;html=1;strokeColor=none;fillColor=none;align=center;verticalAlign=middle;whiteSpace=wrap;rounded=0;fontSize=16;fontFamily=Times New Roman;fontStyle=2" vertex="1" parent="1">
          <mxGeometry x="140" y="12" width="60" height="30" as="geometry" />
        </mxCell>
        <mxCell id="NxWGqdp5jgiK-QCYanBL-45" style="edgeStyle=none;curved=1;rounded=0;orthogonalLoop=1;jettySize=auto;html=1;exitX=0.5;exitY=1;exitDx=0;exitDy=0;entryX=0.5;entryY=0;entryDx=0;entryDy=0;fontSize=12;startSize=8;endSize=8;endArrow=none;endFill=0;" edge="1" parent="1" source="NxWGqdp5jgiK-QCYanBL-23" target="NxWGqdp5jgiK-QCYanBL-26">
          <mxGeometry relative="1" as="geometry" />
        </mxCell>
        <mxCell id="NxWGqdp5jgiK-QCYanBL-61" style="edgeStyle=none;curved=1;rounded=0;orthogonalLoop=1;jettySize=auto;html=1;exitX=0.5;exitY=1;exitDx=0;exitDy=0;entryX=0.5;entryY=0;entryDx=0;entryDy=0;fontSize=12;startSize=8;endSize=8;endArrow=none;endFill=0;" edge="1" parent="1" source="NxWGqdp5jgiK-QCYanBL-23" target="NxWGqdp5jgiK-QCYanBL-27">
          <mxGeometry relative="1" as="geometry" />
        </mxCell>
        <mxCell id="NxWGqdp5jgiK-QCYanBL-23" value="x&lt;sub&gt;15&lt;/sub&gt;" style="text;html=1;strokeColor=none;fillColor=none;align=center;verticalAlign=middle;whiteSpace=wrap;rounded=0;fontSize=16;fontFamily=Times New Roman;fontStyle=2" vertex="1" parent="1">
          <mxGeometry x="170" y="13" width="60" height="30" as="geometry" />
        </mxCell>
        <mxCell id="NxWGqdp5jgiK-QCYanBL-46" style="edgeStyle=none;curved=1;rounded=0;orthogonalLoop=1;jettySize=auto;html=1;exitX=0.5;exitY=1;exitDx=0;exitDy=0;entryX=0.5;entryY=0;entryDx=0;entryDy=0;fontSize=12;startSize=8;endSize=8;endArrow=none;endFill=0;" edge="1" parent="1" source="NxWGqdp5jgiK-QCYanBL-24" target="NxWGqdp5jgiK-QCYanBL-26">
          <mxGeometry relative="1" as="geometry" />
        </mxCell>
        <mxCell id="NxWGqdp5jgiK-QCYanBL-62" style="edgeStyle=none;curved=1;rounded=0;orthogonalLoop=1;jettySize=auto;html=1;exitX=0.5;exitY=1;exitDx=0;exitDy=0;entryX=0.5;entryY=0;entryDx=0;entryDy=0;fontSize=12;startSize=8;endSize=8;endArrow=none;endFill=0;" edge="1" parent="1" source="NxWGqdp5jgiK-QCYanBL-24" target="NxWGqdp5jgiK-QCYanBL-27">
          <mxGeometry relative="1" as="geometry" />
        </mxCell>
        <mxCell id="NxWGqdp5jgiK-QCYanBL-24" value="x&lt;sub&gt;16&lt;/sub&gt;" style="text;html=1;strokeColor=none;fillColor=none;align=center;verticalAlign=middle;whiteSpace=wrap;rounded=0;fontSize=16;fontFamily=Times New Roman;fontStyle=2" vertex="1" parent="1">
          <mxGeometry x="200" y="13" width="60" height="30" as="geometry" />
        </mxCell>
        <mxCell id="NxWGqdp5jgiK-QCYanBL-63" style="edgeStyle=none;curved=1;rounded=0;orthogonalLoop=1;jettySize=auto;html=1;exitX=0.5;exitY=1;exitDx=0;exitDy=0;entryX=0.497;entryY=0.006;entryDx=0;entryDy=0;entryPerimeter=0;fontSize=12;startSize=8;endSize=8;" edge="1" parent="1" source="NxWGqdp5jgiK-QCYanBL-26" target="NxWGqdp5jgiK-QCYanBL-28">
          <mxGeometry relative="1" as="geometry" />
        </mxCell>
        <mxCell id="NxWGqdp5jgiK-QCYanBL-26" value="$$\lambda_1$$" style="ellipse;whiteSpace=wrap;html=1;fontSize=16;" vertex="1" parent="1">
          <mxGeometry x="-90" y="141" width="40" height="40" as="geometry" />
        </mxCell>
        <mxCell id="NxWGqdp5jgiK-QCYanBL-102" style="edgeStyle=none;curved=1;rounded=0;orthogonalLoop=1;jettySize=auto;html=1;exitX=0.5;exitY=1;exitDx=0;exitDy=0;entryX=0.491;entryY=-0.007;entryDx=0;entryDy=0;entryPerimeter=0;fontSize=12;startSize=8;endSize=8;" edge="1" parent="1" source="NxWGqdp5jgiK-QCYanBL-27" target="NxWGqdp5jgiK-QCYanBL-29">
          <mxGeometry relative="1" as="geometry" />
        </mxCell>
        <mxCell id="NxWGqdp5jgiK-QCYanBL-27" value="$$\lambda_2$$" style="ellipse;whiteSpace=wrap;html=1;fontSize=16;" vertex="1" parent="1">
          <mxGeometry x="60" y="141" width="40" height="40" as="geometry" />
        </mxCell>
        <mxCell id="NxWGqdp5jgiK-QCYanBL-28" value="$$net_1$$" style="text;html=1;align=center;verticalAlign=middle;resizable=0;points=[];autosize=1;strokeColor=none;fillColor=none;fontSize=16;" vertex="1" parent="1">
          <mxGeometry x="-120" y="221" width="100" height="30" as="geometry" />
        </mxCell>
        <mxCell id="NxWGqdp5jgiK-QCYanBL-29" value="$$net_2$$" style="text;html=1;align=center;verticalAlign=middle;resizable=0;points=[];autosize=1;strokeColor=none;fillColor=none;fontSize=16;" vertex="1" parent="1">
          <mxGeometry x="31" y="221" width="100" height="30" as="geometry" />
        </mxCell>
        <mxCell id="NxWGqdp5jgiK-QCYanBL-68" value="$$\lambda_1$$" style="text;html=1;align=center;verticalAlign=middle;resizable=0;points=[];autosize=1;strokeColor=none;fillColor=none;fontSize=17;" vertex="1" parent="1">
          <mxGeometry x="-695" y="126" width="140" height="30" as="geometry" />
        </mxCell>
        <mxCell id="NxWGqdp5jgiK-QCYanBL-69" value="&lt;font style=&quot;font-size: 17px;&quot; color=&quot;#030303&quot; face=&quot;Times New Roman&quot;&gt;= [1,&amp;nbsp;&lt;span style=&quot;border-color: var(--border-color); background-color: initial; font-size: 17px;&quot;&gt;1&lt;/span&gt;&lt;span style=&quot;border-color: var(--border-color); background-color: initial; font-size: 17px;&quot;&gt;,&amp;nbsp;&lt;/span&gt;&lt;span style=&quot;border-color: var(--border-color); background-color: initial; font-size: 17px;&quot;&gt;1&lt;/span&gt;&lt;span style=&quot;border-color: var(--border-color); background-color: initial; font-size: 17px;&quot;&gt;,&amp;nbsp;&lt;/span&gt;&lt;span style=&quot;border-color: var(--border-color); background-color: initial; font-size: 17px;&quot;&gt;1&lt;/span&gt;&lt;span style=&quot;border-color: var(--border-color); background-color: initial; font-size: 17px;&quot;&gt;,&amp;nbsp;&lt;/span&gt;&lt;span style=&quot;border-color: var(--border-color); background-color: initial; font-size: 17px;&quot;&gt;0&lt;/span&gt;&lt;span style=&quot;border-color: var(--border-color); background-color: initial; font-size: 17px;&quot;&gt;,&amp;nbsp;&lt;/span&gt;&lt;span style=&quot;border-color: var(--border-color); background-color: initial; font-size: 17px;&quot;&gt;1&lt;/span&gt;&lt;span style=&quot;border-color: var(--border-color); background-color: initial; font-size: 17px;&quot;&gt;,&amp;nbsp;&lt;/span&gt;&lt;span style=&quot;border-color: var(--border-color); background-color: initial; font-size: 17px;&quot;&gt;0&lt;/span&gt;&lt;span style=&quot;border-color: var(--border-color); background-color: initial; font-size: 17px;&quot;&gt;,&amp;nbsp;&lt;/span&gt;&lt;span style=&quot;border-color: var(--border-color); background-color: initial; font-size: 17px;&quot;&gt;0&lt;/span&gt;&lt;span style=&quot;border-color: var(--border-color); background-color: initial; font-size: 17px;&quot;&gt;,&amp;nbsp;&lt;/span&gt;&lt;span style=&quot;border-color: var(--border-color); background-color: initial; font-size: 17px;&quot;&gt;0&lt;/span&gt;&lt;span style=&quot;border-color: var(--border-color); background-color: initial; font-size: 17px;&quot;&gt;,&amp;nbsp;&lt;/span&gt;&lt;span style=&quot;border-color: var(--border-color); background-color: initial; font-size: 17px;&quot;&gt;1&lt;/span&gt;&lt;span style=&quot;border-color: var(--border-color); background-color: initial; font-size: 17px;&quot;&gt;,&amp;nbsp;&lt;/span&gt;&lt;span style=&quot;border-color: var(--border-color); background-color: initial; font-size: 17px;&quot;&gt;0&lt;/span&gt;&lt;span style=&quot;border-color: var(--border-color); background-color: initial; font-size: 17px;&quot;&gt;,&amp;nbsp;&lt;/span&gt;&lt;span style=&quot;border-color: var(--border-color); background-color: initial; font-size: 17px;&quot;&gt;0&lt;/span&gt;&lt;span style=&quot;border-color: var(--border-color); background-color: initial; font-size: 17px;&quot;&gt;,&amp;nbsp;&lt;/span&gt;&lt;span style=&quot;border-color: var(--border-color); background-color: initial; font-size: 17px;&quot;&gt;0&lt;/span&gt;&lt;span style=&quot;border-color: var(--border-color); background-color: initial; font-size: 17px;&quot;&gt;,&amp;nbsp;&lt;/span&gt;&lt;span style=&quot;border-color: var(--border-color); background-color: initial; font-size: 17px;&quot;&gt;1&lt;/span&gt;&lt;span style=&quot;border-color: var(--border-color); background-color: initial; font-size: 17px;&quot;&gt;,&amp;nbsp;&lt;/span&gt;&lt;span style=&quot;border-color: var(--border-color); background-color: initial; font-size: 17px;&quot;&gt;0&lt;/span&gt;&lt;span style=&quot;border-color: var(--border-color); background-color: initial; font-size: 17px;&quot;&gt;,&amp;nbsp;&lt;/span&gt;&lt;span style=&quot;border-color: var(--border-color); background-color: initial; font-size: 17px;&quot;&gt;0&lt;/span&gt;&lt;span style=&quot;border-color: var(--border-color); background-color: initial; font-size: 17px;&quot;&gt;]&lt;/span&gt;&lt;/font&gt;" style="text;html=1;align=center;verticalAlign=middle;resizable=0;points=[];autosize=1;strokeColor=none;fillColor=none;fontSize=17;" vertex="1" parent="1">
          <mxGeometry x="-620" y="126" width="310" height="30" as="geometry" />
        </mxCell>
        <mxCell id="NxWGqdp5jgiK-QCYanBL-70" value="&lt;font face=&quot;Times New Roman&quot; style=&quot;font-size: 17px;&quot;&gt;Pattern 1&lt;/font&gt;" style="text;html=1;align=center;verticalAlign=middle;resizable=0;points=[];autosize=1;strokeColor=none;fillColor=none;fontSize=17;" vertex="1" parent="1">
          <mxGeometry x="-715" y="126" width="80" height="30" as="geometry" />
        </mxCell>
        <mxCell id="NxWGqdp5jgiK-QCYanBL-71" value="$$\lambda_2$$" style="text;html=1;align=center;verticalAlign=middle;resizable=0;points=[];autosize=1;strokeColor=none;fillColor=none;fontSize=17;" vertex="1" parent="1">
          <mxGeometry x="-695" y="166" width="140" height="30" as="geometry" />
        </mxCell>
        <mxCell id="NxWGqdp5jgiK-QCYanBL-72" value="&lt;font style=&quot;font-size: 17px;&quot; color=&quot;#030303&quot; face=&quot;Times New Roman&quot;&gt;&lt;font style=&quot;font-size: 17px;&quot;&gt;= [&lt;/font&gt;0&lt;span style=&quot;background-color: initial; font-size: 17px;&quot;&gt;, &lt;/span&gt;&lt;span style=&quot;background-color: initial; font-size: 17px;&quot;&gt;1&lt;/span&gt;&lt;span style=&quot;background-color: initial; font-size: 17px;&quot;&gt;, &lt;/span&gt;&lt;span style=&quot;background-color: initial; font-size: 17px;&quot;&gt;1&lt;/span&gt;&lt;span style=&quot;background-color: initial; font-size: 17px;&quot;&gt;, &lt;/span&gt;&lt;span style=&quot;background-color: initial; font-size: 17px;&quot;&gt;0&lt;/span&gt;&lt;span style=&quot;background-color: initial; font-size: 17px;&quot;&gt;, &lt;/span&gt;&lt;span style=&quot;background-color: initial; font-size: 17px;&quot;&gt;1&lt;/span&gt;&lt;span style=&quot;background-color: initial; font-size: 17px;&quot;&gt;, &lt;/span&gt;&lt;span style=&quot;background-color: initial; font-size: 17px;&quot;&gt;0&lt;/span&gt;&lt;span style=&quot;background-color: initial; font-size: 17px;&quot;&gt;, &lt;/span&gt;&lt;span style=&quot;background-color: initial; font-size: 17px;&quot;&gt;0&lt;/span&gt;&lt;span style=&quot;background-color: initial; font-size: 17px;&quot;&gt;, &lt;/span&gt;&lt;span style=&quot;background-color: initial; font-size: 17px;&quot;&gt;1&lt;/span&gt;&lt;span style=&quot;background-color: initial; font-size: 17px;&quot;&gt;, &lt;/span&gt;&lt;span style=&quot;background-color: initial; font-size: 17px;&quot;&gt;1&lt;/span&gt;&lt;span style=&quot;background-color: initial; font-size: 17px;&quot;&gt;, &lt;/span&gt;&lt;span style=&quot;background-color: initial; font-size: 17px;&quot;&gt;1&lt;/span&gt;&lt;span style=&quot;background-color: initial; font-size: 17px;&quot;&gt;, &lt;/span&gt;&lt;span style=&quot;background-color: initial; font-size: 17px;&quot;&gt;1&lt;/span&gt;&lt;span style=&quot;background-color: initial; font-size: 17px;&quot;&gt;, &lt;/span&gt;&lt;span style=&quot;background-color: initial; font-size: 17px;&quot;&gt;1&lt;/span&gt;&lt;span style=&quot;background-color: initial; font-size: 17px;&quot;&gt;, &lt;/span&gt;&lt;span style=&quot;background-color: initial; font-size: 17px;&quot;&gt;1&lt;/span&gt;&lt;span style=&quot;background-color: initial; font-size: 17px;&quot;&gt;, &lt;/span&gt;&lt;span style=&quot;background-color: initial; font-size: 17px;&quot;&gt;0&lt;/span&gt;&lt;span style=&quot;background-color: initial; font-size: 17px;&quot;&gt;, &lt;/span&gt;&lt;span style=&quot;background-color: initial; font-size: 17px;&quot;&gt;0&lt;/span&gt;&lt;span style=&quot;background-color: initial; font-size: 17px;&quot;&gt;, &lt;/span&gt;&lt;span style=&quot;background-color: initial; font-size: 17px;&quot;&gt;1&lt;/span&gt;&lt;span style=&quot;background-color: initial; font-size: 17px;&quot;&gt;]&lt;/span&gt;&lt;/font&gt;" style="text;html=1;align=center;verticalAlign=middle;resizable=0;points=[];autosize=1;strokeColor=none;fillColor=none;fontSize=17;" vertex="1" parent="1">
          <mxGeometry x="-620" y="166" width="310" height="30" as="geometry" />
        </mxCell>
        <mxCell id="NxWGqdp5jgiK-QCYanBL-75" value="$$net_m=1 - d(\lambda_m, x)/|x|$$" style="text;html=1;align=center;verticalAlign=middle;resizable=0;points=[];autosize=1;strokeColor=none;fillColor=none;fontSize=16;" vertex="1" parent="1">
          <mxGeometry x="-743" y="221" width="270" height="30" as="geometry" />
        </mxCell>
        <mxCell id="NxWGqdp5jgiK-QCYanBL-79" value="&lt;font style=&quot;font-style: italic; font-size: 17px;&quot; color=&quot;#030303&quot; face=&quot;Times New Roman&quot;&gt;x&amp;nbsp;= &lt;/font&gt;&lt;font style=&quot;font-size: 17px;&quot; color=&quot;#030303&quot; face=&quot;Times New Roman&quot;&gt;[&lt;/font&gt;&lt;font style=&quot;font-style: italic; font-size: 17px;&quot; color=&quot;#030303&quot; face=&quot;Times New Roman&quot;&gt;x&lt;sub&gt;1,&amp;nbsp;&lt;/sub&gt;&lt;span style=&quot;border-color: var(--border-color); background-color: initial; font-size: 17px;&quot;&gt;..., x&lt;sub&gt;16&lt;/sub&gt;&lt;/span&gt;&lt;/font&gt;]" style="text;html=1;align=center;verticalAlign=middle;resizable=0;points=[];autosize=1;strokeColor=none;fillColor=none;fontSize=17;" vertex="1" parent="1">
          <mxGeometry x="-620" y="10" width="121" height="36" as="geometry" />
        </mxCell>
        <mxCell id="NxWGqdp5jgiK-QCYanBL-80" value="&lt;font face=&quot;Times New Roman&quot; style=&quot;font-size: 17px;&quot;&gt;Input vector&lt;/font&gt;" style="text;html=1;align=center;verticalAlign=middle;resizable=0;points=[];autosize=1;strokeColor=none;fillColor=none;fontSize=17;" vertex="1" parent="1">
          <mxGeometry x="-715" y="11" width="101" height="32" as="geometry" />
        </mxCell>
        <mxCell id="NxWGqdp5jgiK-QCYanBL-95" value="Input" style="text;html=1;align=center;verticalAlign=middle;resizable=0;points=[];autosize=1;strokeColor=none;fillColor=none;fontSize=16;fontFamily=Times New Roman;rotation=-90;" vertex="1" parent="1">
          <mxGeometry x="-295.5" y="9" width="52" height="31" as="geometry" />
        </mxCell>
        <mxCell id="NxWGqdp5jgiK-QCYanBL-96" value="Hidden" style="text;html=1;align=center;verticalAlign=middle;resizable=0;points=[];autosize=1;strokeColor=none;fillColor=none;fontSize=16;fontFamily=Times New Roman;rotation=-90;" vertex="1" parent="1">
          <mxGeometry x="-302" y="111" width="65" height="31" as="geometry" />
        </mxCell>
        <mxCell id="NxWGqdp5jgiK-QCYanBL-97" value="Output" style="text;html=1;align=center;verticalAlign=middle;resizable=0;points=[];autosize=1;strokeColor=none;fillColor=none;fontSize=16;fontFamily=Times New Roman;rotation=-90;" vertex="1" parent="1">
          <mxGeometry x="-300.5" y="217" width="62" height="31" as="geometry" />
        </mxCell>
      </root>
    </mxGraphModel>
  </diagram>
</mxfile>
